<svg width="60" height="59" viewBox="0 0 60 59" fill="none" xmlns="http://www.w3.org/2000/svg">
<path d="M0.287703 0.557003V-0.152031H-0.421333V0.557003H0.287703ZM14.0194 0.557003H14.7284V-0.152031H14.0194V0.557003ZM14.0194 34.8861V35.5952H14.7284V34.8861H14.0194ZM0.287703 34.8861H-0.421333V35.5952H0.287703V34.8861ZM59.1849 44.7299H59.8939V44.0209H59.1849V44.7299ZM59.1849 58.4615V59.1706H59.8939V58.4615H59.1849ZM19.8925 58.4615L19.2406 58.7404L19.4246 59.1706H19.8925V58.4615ZM14.0194 44.7299V44.0209H12.9449L13.3674 45.0087L14.0194 44.7299ZM0.287703 1.26604H14.0194V-0.152031H0.287703V1.26604ZM13.3103 0.557003V34.8861H14.7284V0.557003H13.3103ZM14.0194 34.1771H0.287703V35.5952H14.0194V34.1771ZM0.996737 34.8861V0.557003H-0.421333V34.8861H0.996737ZM58.4759 44.7299V58.4615H59.8939V44.7299H58.4759ZM59.1849 57.7525H19.8925V59.1706H59.1849V57.7525ZM20.5444 58.1827L14.6713 44.4511L13.3674 45.0087L19.2406 58.7404L20.5444 58.1827ZM14.0194 45.4389H59.1849V44.0209H14.0194V45.4389Z" fill="white"/>
</svg>
